<mxfile host="Electron" agent="Mozilla/5.0 (X11; Linux x86_64) AppleWebKit/537.36 (KHTML, like Gecko) draw.io/24.7.8 Chrome/128.0.6613.36 Electron/32.0.1 Safari/537.36" version="24.7.8">
  <diagram name="Страница — 1" id="fOMC7xHu2SzvGz_D-_M9">
    <mxGraphModel dx="826" dy="491" grid="1" gridSize="10" guides="1" tooltips="1" connect="1" arrows="1" fold="1" page="1" pageScale="1" pageWidth="827" pageHeight="1169" math="0" shadow="0">
      <root>
        <mxCell id="0" />
        <mxCell id="1" parent="0" />
        <mxCell id="HP7L-dZWSXHkJmkqdX_X-1" value="std" style="rounded=0;whiteSpace=wrap;html=1;fillColor=#f8cecc;strokeColor=#b85450;" parent="1" vertex="1">
          <mxGeometry x="400" y="240" width="120" height="40" as="geometry" />
        </mxCell>
        <mxCell id="HP7L-dZWSXHkJmkqdX_X-4" value="int&lt;div&gt;число&lt;/div&gt;" style="rounded=0;whiteSpace=wrap;html=1;" parent="1" vertex="1">
          <mxGeometry x="240" y="320" width="120" height="40" as="geometry" />
        </mxCell>
        <mxCell id="HP7L-dZWSXHkJmkqdX_X-6" value="float&lt;div&gt;дробное число&lt;/div&gt;" style="rounded=0;whiteSpace=wrap;html=1;" parent="1" vertex="1">
          <mxGeometry x="400" y="320" width="120" height="40" as="geometry" />
        </mxCell>
        <mxCell id="HP7L-dZWSXHkJmkqdX_X-7" value="string&lt;div&gt;строка&lt;/div&gt;" style="rounded=0;whiteSpace=wrap;html=1;" parent="1" vertex="1">
          <mxGeometry x="560" y="320" width="120" height="40" as="geometry" />
        </mxCell>
        <mxCell id="HP7L-dZWSXHkJmkqdX_X-13" style="edgeStyle=orthogonalEdgeStyle;rounded=0;orthogonalLoop=1;jettySize=auto;html=1;" parent="1" source="HP7L-dZWSXHkJmkqdX_X-8" target="HP7L-dZWSXHkJmkqdX_X-9" edge="1">
          <mxGeometry relative="1" as="geometry" />
        </mxCell>
        <mxCell id="r6Dz6Naj0mB5d5bvlvq2-5" style="edgeStyle=orthogonalEdgeStyle;rounded=0;orthogonalLoop=1;jettySize=auto;html=1;" edge="1" parent="1" source="HP7L-dZWSXHkJmkqdX_X-8" target="r6Dz6Naj0mB5d5bvlvq2-4">
          <mxGeometry relative="1" as="geometry">
            <Array as="points">
              <mxPoint x="300" y="450" />
              <mxPoint x="460" y="450" />
            </Array>
          </mxGeometry>
        </mxCell>
        <mxCell id="HP7L-dZWSXHkJmkqdX_X-8" value="ref&lt;div&gt;любая ссылка&lt;/div&gt;" style="rounded=0;whiteSpace=wrap;html=1;" parent="1" vertex="1">
          <mxGeometry x="240" y="400" width="120" height="40" as="geometry" />
        </mxCell>
        <mxCell id="HP7L-dZWSXHkJmkqdX_X-15" value="" style="edgeStyle=orthogonalEdgeStyle;rounded=0;orthogonalLoop=1;jettySize=auto;html=1;" parent="1" source="HP7L-dZWSXHkJmkqdX_X-9" target="HP7L-dZWSXHkJmkqdX_X-14" edge="1">
          <mxGeometry relative="1" as="geometry" />
        </mxCell>
        <mxCell id="HP7L-dZWSXHkJmkqdX_X-9" value="&lt;div&gt;CatalogRef&lt;/div&gt;&lt;div&gt;слк на справочник&lt;/div&gt;" style="rounded=0;whiteSpace=wrap;html=1;" parent="1" vertex="1">
          <mxGeometry x="240" y="480" width="120" height="40" as="geometry" />
        </mxCell>
        <mxCell id="HP7L-dZWSXHkJmkqdX_X-10" value="&lt;div&gt;date&lt;/div&gt;&lt;div&gt;дата&lt;/div&gt;" style="rounded=0;whiteSpace=wrap;html=1;" parent="1" vertex="1">
          <mxGeometry x="720" y="320" width="120" height="40" as="geometry" />
        </mxCell>
        <mxCell id="HP7L-dZWSXHkJmkqdX_X-11" value="&lt;div&gt;bool&lt;/div&gt;&lt;div&gt;булево&lt;/div&gt;" style="rounded=0;whiteSpace=wrap;html=1;" parent="1" vertex="1">
          <mxGeometry x="80" y="320" width="120" height="40" as="geometry" />
        </mxCell>
        <mxCell id="HP7L-dZWSXHkJmkqdX_X-12" value="uuid&lt;div&gt;уник. идентиф.&lt;/div&gt;" style="rounded=0;whiteSpace=wrap;html=1;" parent="1" vertex="1">
          <mxGeometry x="80" y="400" width="120" height="40" as="geometry" />
        </mxCell>
        <mxCell id="HP7L-dZWSXHkJmkqdX_X-14" value="Номенклатура&lt;div&gt;слк на номенклатуру&lt;/div&gt;" style="rounded=0;whiteSpace=wrap;html=1;" parent="1" vertex="1">
          <mxGeometry x="240" y="560" width="120" height="40" as="geometry" />
        </mxCell>
        <mxCell id="r6Dz6Naj0mB5d5bvlvq2-1" value="ValueStorage&lt;div&gt;хранилищ. значен.&lt;/div&gt;" style="rounded=0;whiteSpace=wrap;html=1;" vertex="1" parent="1">
          <mxGeometry x="400" y="400" width="120" height="40" as="geometry" />
        </mxCell>
        <mxCell id="r6Dz6Naj0mB5d5bvlvq2-2" value="БСП" style="rounded=0;whiteSpace=wrap;html=1;fillColor=#f8cecc;strokeColor=#b85450;" vertex="1" parent="1">
          <mxGeometry x="1080" y="240" width="120" height="40" as="geometry" />
        </mxCell>
        <mxCell id="r6Dz6Naj0mB5d5bvlvq2-3" value="&lt;div&gt;ПараметрШтрихкода&lt;/div&gt;" style="rounded=0;whiteSpace=wrap;html=1;" vertex="1" parent="1">
          <mxGeometry x="1080" y="320" width="120" height="40" as="geometry" />
        </mxCell>
        <mxCell id="r6Dz6Naj0mB5d5bvlvq2-7" value="" style="edgeStyle=orthogonalEdgeStyle;rounded=0;orthogonalLoop=1;jettySize=auto;html=1;" edge="1" parent="1" source="r6Dz6Naj0mB5d5bvlvq2-4" target="r6Dz6Naj0mB5d5bvlvq2-6">
          <mxGeometry relative="1" as="geometry" />
        </mxCell>
        <mxCell id="r6Dz6Naj0mB5d5bvlvq2-4" value="&lt;div&gt;DocumentRef&lt;/div&gt;&lt;div&gt;слк на документ&lt;/div&gt;" style="rounded=0;whiteSpace=wrap;html=1;" vertex="1" parent="1">
          <mxGeometry x="400" y="480" width="120" height="40" as="geometry" />
        </mxCell>
        <mxCell id="r6Dz6Naj0mB5d5bvlvq2-6" value="Поступление&lt;div&gt;слк на поступление&lt;/div&gt;" style="rounded=0;whiteSpace=wrap;html=1;" vertex="1" parent="1">
          <mxGeometry x="400" y="560" width="120" height="40" as="geometry" />
        </mxCell>
        <mxCell id="r6Dz6Naj0mB5d5bvlvq2-8" value="typing::Type" style="text;html=1;align=center;verticalAlign=middle;whiteSpace=wrap;rounded=0;" vertex="1" parent="1">
          <mxGeometry x="80" y="640" width="120" height="40" as="geometry" />
        </mxCell>
      </root>
    </mxGraphModel>
  </diagram>
</mxfile>
